<svg width="1000" height="750" xmlns="http://www.w3.org/2000/svg"><polygon points="269,126 269,128 268,129 270,131 270,133 268,135 267,135 265,133 264,133 264,134 265,135 269,135 270,136 271,136 272,137 272,140 271,141 270,140 269,140 268,139 265,139 264,140 265,141 264,142 263,142 261,144 260,144 259,145 258,145 257,146 257,150 256,151 252,151 251,150 251,146 248,146 247,145 248,144 249,144 249,143 250,142 250,141 249,140 251,138 253,138 254,139 255,139 258,142 257,143 258,143 258,142 261,139 261,138 251,138 250,137 249,138 248,138 247,137 245,137 246,137 248,139 248,140 247,141 245,141 244,140 240,140 239,139 238,140 236,140 233,137 233,135 232,136 232,138 233,138 234,139 234,140 233,141 231,141 231,142 235,142 236,143 237,143 236,142 236,141 237,140 239,140 240,141 244,141 246,143 247,143 248,144 247,145 245,145 244,146 245,147 245,148 248,148 249,149 249,150 247,152 244,152 242,150 242,149 241,148 242,147 242,146 241,146 241,148 240,149 239,149 238,148 237,149 237,152 239,154 239,156 237,158 235,156 235,155 235,156 234,157 232,157 232,158 231,159 233,159 234,160 234,161 233,162 228,162 227,161 227,160 224,160 224,164 225,165 226,165 228,167 227,168 225,168 226,168 228,170 231,170 232,171 232,172 233,173 233,175 232,176 231,175 231,174 230,175 227,175 225,173 225,172 224,172 223,171 219,171 217,169 217,168 216,168 217,169 217,170 216,171 216,172 215,173 215,174 215,173 216,172 218,172 219,173 219,174 217,176 216,176 215,177 214,177 213,178 211,176 210,176 209,177 208,177 207,176 207,174 206,174 205,175 206,175 207,176 205,178 204,178 204,179 205,180 205,181 203,183 206,183 207,184 205,186 203,186 202,185 199,185 198,186 199,187 200,186 202,186 207,191 205,193 203,193 202,192 198,192 197,193 196,192 196,191 195,190 195,188 194,188 193,189 192,189 191,188 191,186 192,185 195,185 195,182 196,181 196,179 195,178 194,178 192,176 195,173 196,174 196,175 200,175 200,174 201,173 201,172 199,172 197,174 196,174 195,173 195,172 197,170 199,170 200,169 201,169 201,167 200,166 200,164 201,163 201,161 200,160 199,161 198,161 197,160 194,160 193,161 192,160 191,160 190,159 189,159 189,160 188,161 186,161 185,160 185,159 184,160 183,160 184,161 184,166 185,167 185,170 184,171 183,170 183,168 182,167 182,166 181,165 181,163 180,162 180,161 179,161 177,163 177,165 176,166 175,165 175,163 173,165 173,168 171,170 169,170 169,171 170,172 170,173 171,172 171,171 173,169 174,169 175,170 175,174 174,175 175,176 175,177 176,178 176,179 174,181 174,182 173,183 171,183 170,182 170,181 172,179 173,179 173,177 172,177 170,175 169,176 168,176 167,175 167,174 166,174 164,176 163,176 162,175 162,174 163,173 162,173 161,174 162,175 161,176 162,177 163,176 165,178 165,180 162,183 160,181 160,180 159,181 158,181 157,180 153,180 152,179 152,178 151,177 151,176 150,176 150,177 149,178 148,178 147,179 146,179 145,180 144,180 144,185 145,186 146,186 147,187 147,188 145,190 144,190 143,191 141,191 142,192 141,193 137,193 137,194 143,194 144,195 144,196 143,197 134,197 133,198 131,198 130,197 130,194 132,192 133,192 133,191 132,190 132,188 131,187 131,185 133,183 134,183 134,180 133,179 132,179 132,180 131,181 131,183 130,184 126,184 125,183 126,182 127,182 127,179 126,180 123,180 122,179 125,176 126,176 127,177 130,177 130,176 131,175 130,174 128,174 126,176 125,176 124,175 123,175 122,176 119,173 118,173 117,174 116,174 115,173 115,172 112,169 112,159 112,164 111,165 111,171 113,173 113,178 112,179 111,178 110,178 109,177 109,173 108,173 107,174 107,175 106,176 109,179 109,182 110,182 112,180 112,179 113,178 114,178 115,179 115,182 113,184 109,184 107,186 106,186 105,185 105,184 104,183 105,182 105,178 104,178 103,177 103,174 102,173 102,172 101,172 102,173 102,175 103,176 103,177 104,178 104,179 103,180 103,182 104,183 104,185 103,186 103,187 102,188 100,188 99,187 99,186 97,186 96,187 95,186 95,185 96,184 96,180 95,179 95,177 97,175 99,177 99,176 98,176 96,174 96,172 96,173 95,174 95,175 96,176 95,177 95,180 96,181 95,182 95,183 94,184 95,185 95,187 94,188 94,190 97,190 98,191 97,192 93,192 92,191 92,190 89,190 89,191 88,192 84,188 84,187 82,187 82,188 81,189 80,189 80,190 79,191 77,191 78,191 79,192 79,193 80,194 80,195 81,196 82,196 84,198 84,199 83,200 83,203 82,204 81,204 79,202 78,202 77,203 77,204 78,205 77,206 76,206 75,207 74,207 73,208 72,208 71,207 70,207 70,208 72,208 73,209 74,209 76,207 77,208 77,215 76,216 76,217 77,216 78,216 78,214 79,213 79,212 80,211 80,210 79,209 79,208 78,208 77,207 79,205 82,205 83,206 84,205 84,203 83,202 84,201 84,200 85,199 86,199 87,200 87,198 86,198 84,196 84,195 87,192 88,193 88,196 90,198 91,198 92,197 92,196 90,196 89,195 89,192 90,191 91,191 94,194 95,194 96,195 96,198 94,200 93,200 92,201 92,202 95,202 96,203 96,205 95,206 95,207 94,208 93,208 91,206 91,207 92,207 93,208 92,209 90,209 89,210 95,210 95,209 96,208 98,208 99,209 99,211 100,212 100,214 98,216 94,216 93,215 94,214 94,213 93,213 92,212 91,213 90,213 90,214 92,216 92,218 89,221 88,221 87,220 87,215 86,214 85,215 86,215 87,216 86,217 86,220 85,221 83,221 82,220 78,220 76,222 75,221 73,221 72,222 71,221 70,221 68,223 66,223 66,224 64,226 64,229 65,229 66,228 67,228 69,230 69,231 68,232 67,232 66,233 65,233 63,235 58,235 58,236 62,236 63,237 63,238 62,239 61,239 62,239 63,240 62,241 62,242 63,243 64,243 65,242 65,241 64,240 67,237 68,237 69,238 70,238 71,239 72,239 73,240 73,241 73,240 74,239 74,238 75,237 77,237 78,236 79,236 79,234 80,233 81,233 83,235 82,236 82,240 81,241 80,241 79,240 79,238 79,239 78,240 78,243 76,245 76,247 75,248 74,248 74,250 73,251 74,252 74,255 73,256 72,256 72,257 70,259 69,258 69,256 68,256 67,255 67,254 68,253 69,254 70,254 71,253 71,252 70,252 69,251 69,248 70,247 70,246 71,245 71,243 69,241 68,242 68,246 67,247 66,247 65,246 64,246 63,245 62,246 61,245 60,245 59,244 59,243 60,242 60,241 59,240 58,241 58,242 59,243 59,244 58,245 56,245 53,242 52,242 52,245 53,246 55,244 56,245 56,246 58,246 59,247 61,247 62,248 61,249 58,249 57,250 57,251 62,251 63,250 66,253 64,255 65,256 65,257 64,258 64,259 63,260 61,260 60,259 60,258 61,257 61,256 62,255 61,254 59,254 57,256 56,256 58,256 60,258 60,259 58,261 57,261 56,262 56,265 57,265 59,263 59,262 60,261 61,261 63,263 64,262 64,261 65,260 66,261 66,263 67,263 67,261 66,260 66,256 67,255 68,256 68,257 69,258 69,259 70,260 70,262 70,261 71,260 71,259 73,257 74,257 75,256 75,255 76,254 76,253 77,252 79,252 80,253 80,255 79,256 79,257 80,258 80,259 81,260 81,262 82,263 81,264 81,266 80,267 79,266 79,261 77,263 75,263 74,264 73,264 72,265 72,266 73,265 74,265 75,264 76,264 78,266 78,268 77,269 76,269 75,270 74,270 73,271 74,271 75,272 75,276 73,278 72,278 72,279 71,280 71,282 71,281 72,280 73,280 75,282 76,281 76,278 77,277 77,276 76,275 76,274 77,273 77,271 79,269 80,270 80,271 79,272 80,273 80,275 81,276 81,277 80,278 80,282 77,285 77,287 76,288 74,288 74,290 75,290 76,289 77,289 78,290 78,291 79,292 79,293 80,294 80,295 80,293 82,291 83,291 84,292 84,296 81,299 81,300 80,301 79,300 78,300 77,301 77,303 79,301 80,302 80,303 81,303 81,302 83,300 85,302 85,305 84,306 84,308 85,308 86,307 87,307 88,308 88,309 90,311 89,312 88,312 88,316 89,317 89,322 90,323 91,322 91,319 90,318 90,317 88,315 88,313 90,311 91,311 91,310 92,309 92,308 93,307 94,308 94,313 93,314 93,318 94,318 94,317 95,316 96,317 96,322 95,323 95,329 93,331 93,334 94,333 94,331 96,329 97,329 98,328 99,328 100,329 100,330 101,331 101,333 98,336 97,336 96,335 95,336 94,336 95,336 96,337 96,343 96,337 97,336 98,336 99,337 99,336 100,335 100,334 101,333 102,333 103,334 103,337 100,340 100,344 99,345 97,345 96,346 95,346 95,349 96,348 98,348 99,347 102,347 102,344 101,343 101,341 102,340 103,340 105,342 106,342 107,341 108,341 109,342 119,342 120,343 119,344 115,344 114,345 113,344 111,344 111,345 113,347 113,349 115,349 116,348 117,348 118,349 118,351 117,352 116,352 116,354 118,356 118,357 119,358 118,359 118,360 117,361 116,361 116,363 117,364 116,365 116,366 117,365 119,365 119,362 121,360 122,360 123,361 124,361 124,360 125,359 125,358 126,357 127,358 127,356 128,355 130,355 131,356 131,357 132,358 132,359 132,358 133,357 133,355 135,353 135,350 137,348 137,346 136,345 136,344 137,343 137,341 135,339 135,337 134,336 134,332 136,330 137,330 136,330 135,329 134,329 134,330 133,331 132,331 131,330 131,328 130,327 130,320 128,318 128,313 129,312 130,312 131,313 131,312 130,312 129,311 129,309 130,308 130,307 131,306 131,305 133,303 133,302 134,301 134,300 133,299 132,299 131,300 130,300 129,299 129,298 128,298 127,297 126,298 126,301 129,301 130,302 131,302 132,303 131,304 130,304 129,305 128,305 127,304 127,306 126,307 124,307 124,308 123,309 123,310 122,311 121,310 121,309 120,308 120,307 122,305 123,305 124,304 124,303 122,301 122,300 123,299 123,298 124,297 124,295 122,293 123,292 123,291 124,290 125,290 127,292 127,290 124,290 122,288 123,287 123,286 121,284 122,283 122,282 121,281 120,281 119,280 119,278 120,277 120,275 119,274 118,274 116,272 115,273 114,273 113,272 113,270 111,268 112,267 113,267 114,268 115,268 115,266 117,264 119,264 122,261 121,260 120,260 119,261 118,261 117,260 116,260 116,262 115,263 116,264 115,265 114,265 113,264 113,263 112,262 113,261 113,259 115,257 116,258 117,258 118,257 120,257 121,256 120,255 119,256 116,256 115,255 116,254 117,254 117,252 118,251 119,251 119,250 121,248 122,248 124,246 127,246 127,245 128,244 129,245 129,246 130,247 129,248 127,248 127,249 125,251 123,251 122,252 124,252 125,253 125,254 124,255 125,256 125,260 126,259 127,259 128,258 129,258 130,257 131,257 132,258 132,259 130,261 129,261 129,264 128,265 128,266 129,267 129,268 128,269 128,270 129,270 132,267 132,265 133,264 138,264 139,265 141,265 142,266 141,267 140,267 139,268 136,268 138,268 139,269 137,271 134,271 134,274 133,275 134,276 134,277 136,279 134,281 134,282 135,283 135,284 134,285 135,286 138,283 140,283 141,284 142,284 142,280 143,279 144,280 144,281 146,283 146,285 145,286 144,286 144,287 145,287 146,288 146,290 147,290 147,280 146,280 144,278 144,276 145,275 145,274 146,273 146,270 148,268 149,268 152,265 153,265 154,266 154,268 153,269 152,269 152,270 151,271 150,270 150,271 153,271 156,268 158,268 159,267 160,268 160,269 159,270 158,270 157,271 158,272 158,275 157,276 157,277 158,278 159,277 160,278 160,279 159,280 159,281 158,282 158,283 157,284 156,284 155,283 154,284 154,288 153,289 153,290 151,292 151,295 154,298 154,300 153,301 154,302 154,303 155,304 155,305 157,307 156,308 156,309 157,310 157,311 159,311 160,312 160,313 161,312 160,312 159,311 160,310 161,310 162,309 167,309 167,308 160,308 159,307 159,306 160,305 161,305 163,303 166,303 165,302 164,302 163,301 163,298 162,298 160,296 162,294 165,294 165,293 164,292 162,292 161,293 160,293 159,294 157,292 157,290 159,288 161,290 163,290 163,289 162,288 162,286 163,285 161,283 161,280 162,279 165,279 166,280 169,280 169,279 168,279 167,278 164,278 163,277 163,275 164,274 164,272 165,271 168,271 165,268 165,266 166,265 168,265 169,266 171,266 172,265 172,264 173,263 174,263 176,265 176,266 177,266 178,265 179,265 180,264 184,264 183,263 184,262 185,262 185,261 181,257 181,256 179,258 177,258 176,257 176,256 177,255 179,255 176,255 175,254 175,253 174,252 171,252 169,254 168,254 166,256 163,256 163,259 161,261 159,259 159,258 158,257 158,256 159,255 161,255 161,254 163,252 164,252 165,251 165,250 166,249 165,248 166,247 166,246 167,245 167,243 168,242 169,242 169,241 170,240 168,240 167,241 166,240 166,239 167,238 167,237 172,232 171,232 170,231 172,229 175,229 175,228 173,228 171,226 171,224 172,223 173,223 173,220 172,219 172,218 174,216 176,218 176,223 177,224 177,225 178,226 178,227 179,228 179,229 180,230 180,231 181,231 181,227 179,225 179,222 183,218 183,217 184,216 185,216 184,215 187,212 188,213 189,213 189,212 190,211 191,211 191,209 190,209 189,210 188,210 187,209 187,206 186,205 188,203 189,203 190,204 191,204 192,205 192,206 191,207 192,206 195,206 196,207 198,207 198,204 197,203 197,202 196,202 194,200 195,199 195,198 194,198 193,197 193,196 194,195 195,195 196,196 198,196 200,194 201,195 202,195 203,196 200,199 199,199 198,200 199,201 200,200 201,201 203,199 204,199 205,200 206,199 207,199 209,197 212,197 213,196 213,194 215,192 216,192 217,191 217,190 221,186 222,186 224,184 226,184 226,183 229,180 229,179 228,179 227,178 226,178 223,175 224,174 225,174 226,175 231,175 232,176 232,177 234,175 236,175 236,174 235,173 235,169 237,167 238,167 237,166 239,164 240,165 240,176 242,176 241,176 240,175 241,174 241,171 242,170 244,170 246,172 246,173 245,174 244,174 244,175 245,175 246,176 246,179 245,180 241,180 240,181 241,182 241,183 240,184 241,183 243,183 245,181 249,181 250,180 254,180 254,178 255,177 256,178 257,178 258,177 258,176 257,176 256,177 255,176 255,174 256,173 257,174 258,174 259,173 260,173 261,174 261,175 262,176 262,174 263,173 265,173 266,174 266,175 269,175 268,174 268,173 267,173 266,172 259,172 257,170 257,168 258,167 259,168 260,168 259,168 258,167 258,166 259,165 261,165 262,166 262,167 264,169 265,169 266,168 267,169 267,170 268,171 268,170 270,168 271,168 272,169 272,173 273,173 274,172 278,172 283,167 284,167 283,166 282,166 281,165 281,163 280,162 278,164 275,164 274,163 274,161 275,160 274,159 274,157 275,156 276,157 278,157 279,156 279,154 277,154 276,155 275,154 275,152 274,152 271,149 271,148 269,146 269,145 271,143 271,141 272,140 273,140 273,139 272,138 272,137 273,136 271,136 270,135 271,134 271,131 270,131 269,130 "/></svg>